<?xml version="1.0" encoding="UTF-8" standalone="no"?>
<svg
   width="512"
   height="512"
   viewBox="0 0 24 297"
   xmlns:svg="http://www.w3.org/2000/svg">
    <path
       style="fill:#000000;"
       d="m 56.790615,0.41338578 c -2.99492,0 -5.40638,2.41146542 -5.40638,5.40638702 l -0.0104,0.0016 c -0.0586,2.884609 -2.38994,5.1919322 -5.28908,5.1919322 h -32.64658 c -0.002,0 -0.003,-5.3e-4 -0.005,-5.3e-4 l -0.004,5.3e-4 c -3.6895397,0 -6.6600597,2.969998 -6.6600597,6.659541 0,3.68954 2.97052,6.660057 6.6600597,6.660057 h 6.61149 c 3.66266,0 6.61096,2.948816 6.61096,6.611482 v 0.03153 l 0.0326,0.01654 c 0,3.761174 3.02807,6.789248 6.78925,6.789248 h 71.253535 c 3.76118,0 6.78925,-3.028074 6.78925,-6.789248 0,-3.761184 -3.02807,-6.789251 -6.78925,-6.789251 h -18.469165 -0.0253 c -3.59482,0 -6.48901,-2.893673 -6.48901,-6.488493 0,-3.59482 2.89419,-6.489009 6.48901,-6.489009 h 0.39016 24.198525 19.98844 c 2.99493,0 5.40588,-2.4109502 5.40588,-5.4058722 0,-2.9949216 -2.41095,-5.40638702 -5.40588,-5.40638702 z" />
  </g>
</svg>
