<?xml version="1.0" encoding="UTF-8" standalone="no"?>
<svg
   width="512"
   height="512"
   viewBox="0 0 24 297"
   xmlns:svg="http://www.w3.org/2000/svg">
    <path
       style="fill:#000000;"
       d="m 15.762508,1.9614078 c -4.76187,0 -8.5953396,3.83346 -8.5953396,8.5953402 0,4.33333 3.1745796,7.8974 7.3344396,8.50387 h 11.50214 c 4.76182,0 8.59534,3.83352 8.59534,8.59534 0,0.33161 -0.0227,0.65765 -0.0589,0.97927 0.45399,4.32861 4.09456,7.68118 8.54728,7.68118 h 68.397892 c 4.76187,0 8.59534,-3.83398 8.59534,-8.59585 0,-4.51328 -3.44403,-8.19196 -7.85792,-8.56382 h -10.84947 c -4.759892,0 -8.591722,-3.83051 -8.594822,-8.58966 l -0.0227,-0.0103 c 0,-4.7618802 -3.83346,-8.5953402 -8.59534,-8.5953402 z" />
</svg>
