<?xml version="1.0" encoding="UTF-8" standalone="no"?>
<svg
   width="512"
   height="512"
   viewBox="0 0 24 300"
   xmlns:svg="http://www.w3.org/2000/svg">
    <path
       style="fill:#000000;"
       d="m 59.111849,2.8485785 c -2.793815,0 -5.062562,2.1636301 -5.23172,4.9134001 0.01092,0.13878 0.04134,0.27173 0.04134,0.41341 0,2.9046504 -2.338446,5.2425704 -5.243092,5.2425704 H 12.321427 C 9.9564818,13.92682 8.194031,16.02078 8.194031,18.5422 c 0,2.90465 2.338442,5.24309 5.24309,5.24309 h 74.345845 c 2.897547,0 5.231178,-2.32713 5.242576,-5.2219 -2.46e-4,-0.021 -0.0062,-0.0404 -0.0062,-0.0615 0,-2.90465 2.338443,-5.243091 5.243092,-5.243091 h 36.086146 c 2.47713,-0.42089 4.35218,-2.56649 4.35218,-5.1671304 0,-2.90463 -2.33844,-5.2430901 -5.24309,-5.2430901 z"/>
  </g>
</svg>
